<?xml version="1.0" encoding="utf-8"?>
<!-- Generator: Adobe Illustrator 22.1.0, SVG Export Plug-In . SVG Version: 6.00 Build 0)  -->
<svg version="1.1" id="Layer_1" xmlns="http://www.w3.org/2000/svg" xmlns:xlink="http://www.w3.org/1999/xlink" x="0px" y="0px"
	 viewBox="0 0 52 52" style="enable-background:new 0 0 52 52;" xml:space="preserve">
<style type="text/css">
	.st0{fill:#8100FF;}
</style>
<g>
	<g>
		<path class="st0" d="M21.3,27.7c-0.1-0.6-1.4-0.3-1.8-0.4c-1.2-0.4-1.8-1.2-2.1-2.4c-0.6-2.1,0-3.8,1.4-5.5
			c1.3-1.5,6.8-5.9,7.9-2.6c0.4,1.2,0.2,3.1,0.1,4.4c-0.1,2.3-0.5,3.4-2.5,4.6c-0.1,0.1-2,0.8-1.7,1.1c-0.1-0.1,0.6-1.8,0.7-2.1
			c0.6-1.6,1.3-3,2.3-4.3c-0.9-0.4-1.7-0.7-2.6-1.1c-0.2,1.4-0.4,2.8-0.6,4.2c-0.2,1.2,1,2.4,2.2,1.7c0.2-0.1,0.4-0.2,0.6-0.4
			c-0.8-0.4-1.5-0.9-2.3-1.3c0,0.5,0.1,1.1,0.1,1.6c0.1,1.4,2,2.1,2.8,0.8c0.4-0.7,0.8-1.4,1.1-2.1c-0.9-0.4-1.8-0.8-2.7-1.2
			c-0.2,0.9-0.4,1.7-0.7,2.6c1,0.1,2,0.3,2.9,0.4c-0.1-1.3-0.2-2.5-0.4-3.8c-0.2-1.4-2.1-1.3-2.7-0.4c-0.9,1.3-1.7,2.5-2.6,3.8
			c0.9,0.4,1.8,0.8,2.7,1.2c0.5-1.2,1-2.3,1.6-3.5c-0.9-0.3-1.9-0.5-2.8-0.8c0.2,0.7,0.2,1.5,0,2.2c-0.1,1.9,2.8,1.9,3,0
			c0.2-2.1,0.5-4.1,1.5-6c-0.9-0.1-1.8-0.2-2.7-0.4c0.2,1,0.4,1.9,0.8,2.8c0.6,1.6,2.8,1.3,2.9-0.4c0-0.2,0-0.5,0.1-0.7
			c0.1-1.7-2.6-2.1-2.9-0.4c-0.2,0.8-0.3,1.6-0.5,2.5c1,0.3,1.9,0.5,2.9,0.8c0.6-3,2.1-8.7-2.8-8.2c-1.7,0.2-2.9,1.2-4.1,2.3
			c-1.8,1.5-3.6,2.6-4.5,4.8c-0.7,1.8-1.6,7.1,1.6,7.2c3.8,0.1,3.5-8.3,6.4-9.9c-0.5,0-1,0-1.5,0c0.1,0.1,0.2,0.1,0.3,0.2
			c-0.2-0.4-0.5-0.9-0.7-1.3c0,0.1,0,0.2,0,0.3c0.2,1.9,3.2,1.9,3,0c-0.1-1.2-0.9-2.2-2.3-2c-1.9,0.3-3.1,3.2-3.8,4.7
			c-0.5,1.2-0.9,2.5-1.4,3.8c-0.2,0.4-0.4,0.8-0.6,1.3c0.4-0.4,0.8-0.7,1.2-1.1c0.5-0.9,0.3-2,0.9-3c0.8-1.2,2.2-2.1,3.3-3
			c0.5-0.4,1.7-1.6,2.4-1c0.4,0.3-0.4,3.5-0.5,4c-0.4,1.9,2.5,2.7,2.9,0.8c0.2-0.8,0.3-1.6,0.5-2.5c-1-0.1-2-0.3-2.9-0.4
			c0,0.2,0,0.5-0.1,0.7c1-0.1,2-0.3,2.9-0.4c-0.3-0.9-0.6-1.8-0.8-2.8c-0.3-1.2-2.2-1.5-2.7-0.4c-1.2,2.4-1.6,4.9-1.9,7.6
			c1,0,2,0,3,0c0.1-0.7,0.1-1.5,0-2.2c-0.1-1.3-2.1-2.2-2.8-0.8c-0.7,1.4-1.3,2.8-1.9,4.2c-0.7,1.6,1.9,2.5,2.7,1.2
			c0.8-1.3,1.7-2.6,2.6-3.8c-0.9-0.1-1.8-0.2-2.7-0.4c0.2,1,0.3,2,0.3,3c0.1,1.8,2.3,1.9,2.9,0.4c0.3-0.9,0.6-1.7,0.7-2.6
			c0.3-1.6-2-2.8-2.7-1.2c-0.4,0.7-0.7,1.4-1.1,2.1c0.9,0.3,1.9,0.5,2.8,0.8c0-0.5-0.1-1.1-0.1-1.6c-0.1-1.1-1.2-1.9-2.3-1.3
			c-0.2,0.1-0.4,0.2-0.6,0.4c0.7,0.6,1.5,1.1,2.2,1.7c0.3-1.7,0.5-3.3,0.7-5c0.2-1.3-1.8-2-2.6-1.1c-1.7,2-4.2,6.1-4,8.8
			c0.3,3.3,4.5,2,6.5,1.2c3.2-1.3,3.6-3.9,3.8-7.1c0.1-2.5,0.7-7.6-2.6-8.5c-5.8-1.7-13.6,5.5-13.1,11.2c0.3,2.9,1.6,6.2,4.8,6.3
			c2.4,0.1,5.7-0.3,5.2-3.4C23.8,25.1,20.9,25.9,21.3,27.7L21.3,27.7z"/>
	</g>
</g>
<g>
	<g>
		<path class="st0" d="M22.3,19.6c-4.7,4-4.3,9.7,1.4,12.4c0.4-0.9,0.8-1.8,1.2-2.7c-1.7-0.6-3.5-1-5.2-1.8c-1.6-0.8-2.9,1-1.8,2.4
			c3.7,4.4,11.4,1.1,12.3-4.1c0.3-1.5-2-2.8-2.7-1.2c-0.7,1.7-1.2,4.5-3.1,5.2c0.4,0.9,0.8,1.8,1.2,2.7c3.2-1.6,4.1-4.9,5.5-8
			c1.1-2.3,1.2-6.2,0.3-8.6c-2.8-7.7-11.8-1.8-15,2c-2.1,2.5-2.5,4.8-1.2,7.8c1,2.5,3,6.1,6,6.2c0.7,0,1.5-0.3,2.2-0.3
			c1.2-0.1,2.1,0.4,3.2,0.6c1.1,0.1,1.9,0.2,2.8-0.6c2.4-1.9,2-6.9,2.4-9.5c0.2-1.9-2.8-1.9-3,0c-0.2,1.3,0,5.8-0.9,6.5
			c-0.8,0.8-2.6-0.1-3.6-0.1c-0.7,0-1.5,0.3-2.2,0.3c-1.6-0.1-2.2-0.9-3.1-2.4c-1.6-2.7-1.8-4.9,0.4-7.2c1.4-1.5,3.3-2.9,5.2-3.7
			c2.8-1.2,4.2,1.2,4.3,3.9c0.1,2.8-2.1,9.1-4.7,10.5c-1.5,0.8-0.5,3.3,1.2,2.7c3.2-1.1,3.6-3.4,4.9-6.6c-0.9-0.4-1.8-0.8-2.7-1.2
			c-0.5,3-5,5.5-7.3,2.8c-0.6,0.8-1.2,1.6-1.8,2.4C20,31,22,31.6,24,32.2c1.6,0.5,2.7-2,1.2-2.7c-1.5-0.7-3.2-1.5-3.3-3.7
			c-0.1-1.6,1.5-3.1,2.6-4.1C25.9,20.5,23.8,18.4,22.3,19.6L22.3,19.6z"/>
	</g>
</g>
<g>
	<g>
		<path class="st0" d="M26.6,16.1c2.1,0,2,4.7,2.9,6.1c0.6,1.1,2.4,0.9,2.7-0.4c0.4-1.7,0.1-3.5-0.2-5.2c-0.3-2-1.7-3-3.2-4.3
			c-1-1-3,0-2.5,1.5c0.6,2,2.3,2.8,2.9,4.9c0.8,2.5,2.7,9.6-1.4,10.4c0.4,0.9,0.8,1.8,1.2,2.7c3.6-2.2,4.2-7.4,4.5-11.3
			c0.2-4.3-1.4-6.3-5.3-7.9c-1.6-0.6-2.7,2-1.2,2.7c2.3,1.1,2.8,2.1,3.7,4.5c1.1,3.2,0.1,5.3-2,7.7c-1.3,1.5,0.9,3.6,2.1,2.1
			c2.3-2.6,4.1-5.3,3.3-9c-0.8-3.9-2.1-6.3-5.6-8c-0.4,0.9-0.8,1.8-1.2,2.7c2.8,1.1,3.3,3.5,3,6.3c-0.3,2.3-0.7,6.1-2.9,7.4
			c-1.5,0.9-0.5,3.1,1.2,2.7c3.6-0.7,4.6-4.4,4.6-7.7c0-2.4-0.6-4.8-1.3-7c-0.2-0.7-0.5-1.8-1-2.4c-0.5-0.7-1.5-1-1.8-1.8
			c-0.8,0.5-1.7,1-2.5,1.5c1.7,1.7,3.3,3.9,2.6,6.6c0.9-0.1,1.8-0.2,2.7-0.4c-1.8-3-0.6-7.7-5.5-7.6C24.7,13.1,24.7,16.1,26.6,16.1
			L26.6,16.1z"/>
	</g>
</g>
<g>
</g>
<g>
</g>
<g>
</g>
<g>
</g>
<g>
</g>
</svg>
